<mxfile host="app.diagrams.net" modified="2023-12-29T09:24:37.267Z" agent="Mozilla/5.0 (Windows NT 10.0; Win64; x64) AppleWebKit/537.36 (KHTML, like Gecko) Chrome/120.0.0.0 Safari/537.36" version="22.1.15" etag="X4OpzkpbdluWYLr3u69u" type="github">
  <diagram name="페이지-1" id="q1uBx-4R7m07mmVrnUml">
    <mxGraphModel>
      <root>
        <mxCell id="0" />
        <mxCell id="1" parent="0" />
      </root>
    </mxGraphModel>
  </diagram>
</mxfile>
